<?xml version="1.0" encoding="UTF-8" standalone="no"?>
<!-- Created with Inkscape (http://www.inkscape.org/) -->

<svg
   width="26.63061mm"
   height="93.729561mm"
   viewBox="0 0 26.630609 93.729559"
   version="1.1"
   id="svg1"
   xml:space="preserve"
   xmlns="http://www.w3.org/2000/svg"
   xmlns:svg="http://www.w3.org/2000/svg"><defs
     id="defs1"><linearGradient
       id="swatch41"><stop
         style="stop-color:#000000;stop-opacity:1;"
         offset="0"
         id="stop41" /></linearGradient></defs><g
     id="layer1"
     style="display:inline"
     transform="translate(-929.01762,-136.18032)"><g
       id="g36"
       style="stroke:none"><path
         id="path184-2"
         style="fill:#b2b2b2;fill-opacity:1;stroke:none;stroke-width:0.1;stroke-dasharray:none"
         d="m 942.33318,136.18032 c -0.8121,0.0374 -1.616,0.25069 -2.33939,0.62167 -0.46343,0.23766 -0.8922,0.5381 -1.29967,0.86248 -1.45263,1.1564 -2.6394,2.6237 -3.59564,4.21524 -1.73596,2.88928 -2.71942,6.16814 -3.43752,9.46144 -0.53745,2.46483 -0.93597,4.95851 -1.24643,7.46208 -0.45779,3.69163 -0.72434,7.40407 -0.94103,11.11766 -0.15383,2.63633 -0.28251,5.27463 -0.36174,7.91425 -0.10764,3.58621 -0.12395,7.17519 -0.0439,10.76213 0.057,2.5541 0.16277,5.10682 0.30799,7.65742 0.13993,2.45773 0.31668,4.91355 0.54209,7.36492 0.22938,2.49456 0.50925,4.98572 0.91053,7.45846 0.39445,2.43061 0.9072,4.84713 1.67225,7.18768 0.51111,1.56367 1.1341,3.09057 1.85829,4.56768 0.69754,1.42275 1.49262,2.80452 2.47168,4.0504 0.62218,0.79173 1.32609,1.53394 2.1761,2.07377 1.0029,0.63693 2.19507,0.97227 3.32641,0.95136 1.13134,0.0209 2.32299,-0.31443 3.32589,-0.95136 0.85001,-0.53983 1.55444,-1.28204 2.17662,-2.07377 0.97906,-1.24588 1.77362,-2.62765 2.47116,-4.0504 0.72419,-1.47711 1.34718,-3.00401 1.85829,-4.56768 0.76505,-2.34055 1.2778,-4.75707 1.67225,-7.18768 0.40128,-2.47274 0.68167,-4.9639 0.91105,-7.45846 0.22541,-2.45137 0.40164,-4.90719 0.54157,-7.36492 0.14522,-2.5506 0.25101,-5.10332 0.30799,-7.65742 0.08,-3.58694 0.0637,-7.17592 -0.0439,-10.76213 -0.0792,-2.63962 -0.20791,-5.27792 -0.36174,-7.91425 -0.21669,-3.71359 -0.48324,-7.42603 -0.94103,-11.11766 -0.31046,-2.50357 -0.70898,-4.99725 -1.24643,-7.46208 -0.7181,-3.2933 -1.70104,-6.57216 -3.437,-9.46144 -0.95624,-1.59154 -2.14353,-3.05884 -3.59616,-4.21524 -0.40747,-0.32438 -0.83624,-0.62482 -1.29967,-0.86248 -0.72339,-0.37098 -1.52677,-0.58423 -2.33887,-0.62167 z m -0.13384,15.16341 c 0.44749,0.008 0.89324,0.11112 1.29863,0.30076 0.67406,0.31532 1.21977,0.85865 1.65261,1.46399 0.47582,0.66545 0.82879,1.41122 1.12964,2.17196 0.89659,2.26716 1.34532,4.68434 1.70481,7.0957 0.36731,2.46381 0.64694,4.94071 0.84543,7.42383 0.20453,2.55869 0.32261,5.1234 0.41961,7.68842 0.0944,2.49751 0.16843,4.99642 0.15503,7.49567 -0.0135,2.51916 -0.11525,5.03693 -0.22944,7.55354 -0.11169,2.46152 -0.2354,4.92306 -0.45476,7.37733 -0.22496,2.51693 -0.55143,5.02794 -1.08107,7.49877 -0.25981,1.21203 -0.56918,2.41742 -1.02319,3.57084 -0.30934,0.78588 -0.68587,1.54622 -1.14412,2.25567 -0.35606,0.55124 -0.76658,1.07616 -1.28261,1.48157 -0.33377,0.26222 -0.71153,0.47287 -1.12034,0.58704 -0.23013,0.0643 -0.46904,0.0982 -0.70797,0.0992 -0.28254,-0.0157 -0.56294,-0.0665 -0.83302,-0.15089 -0.4046,-0.12649 -0.78493,-0.3285 -1.12087,-0.58705 -0.52025,-0.4004 -0.92807,-0.92903 -1.2826,-1.48156 -0.45607,-0.71078 -0.83404,-1.47067 -1.14412,-2.2562 -0.45514,-1.153 -0.76379,-2.3587 -1.02319,-3.57084 -0.5288,-2.471 -0.85589,-4.98135 -1.08107,-7.49825 -0.21958,-2.45425 -0.3426,-4.91632 -0.45424,-7.37784 -0.11414,-2.51661 -0.21646,-5.03438 -0.22996,-7.55355 -0.0134,-2.49925 0.0607,-4.99815 0.15503,-7.49566 0.0968,-2.56502 0.21518,-5.12976 0.42013,-7.68842 0.1989,-2.48308 0.47913,-4.95981 0.84491,-7.42384 0.35802,-2.41173 0.80298,-4.83044 1.7048,-7.09569 0.30253,-0.75992 0.65784,-1.50331 1.12965,-2.17144 0.42979,-0.60861 0.97146,-1.16258 1.65261,-1.46451 0.34573,-0.15321 0.72165,-0.23827 1.09968,-0.24857 z" /></g></g></svg>
