<?xml version="1.0" encoding="UTF-8" standalone="no"?>
<!-- Created with Inkscape (http://www.inkscape.org/) -->

<svg
   width="25.756626mm"
   height="93.737862mm"
   viewBox="0 0 25.756626 93.73786"
   version="1.1"
   id="svg1"
   xml:space="preserve"
   xmlns="http://www.w3.org/2000/svg"
   xmlns:svg="http://www.w3.org/2000/svg"><defs
     id="defs1"><linearGradient
       id="swatch41"><stop
         style="stop-color:#000000;stop-opacity:1;"
         offset="0"
         id="stop41" /></linearGradient></defs><g
     id="layer1"
     style="display:inline"
     transform="translate(-760.86933,-136.17903)"><g
       id="g28"
       style="stroke:none"><path
         style="fill:#b2b2b2;fill-opacity:1;stroke:none;stroke-width:0.1;stroke-dasharray:none"
         d="m 786.29554,229.90876 v -15.11741 h -18.21749 c 0.28874,-2.38568 0.72698,-4.75326 1.31128,-7.08424 0.65968,-2.63166 1.50561,-5.21664 2.52988,-7.72895 1.03424,-2.53676 2.26139,-5.01732 3.93346,-7.18734 1.09582,-1.42216 2.37042,-2.69536 3.5465,-4.05189 1.07303,-1.23768 2.06699,-2.54919 2.89112,-3.96484 1.24938,-2.14611 2.09431,-4.50764 2.71682,-6.91164 0.66844,-2.58137 1.08714,-5.22369 1.33441,-7.87871 0.23063,-2.47639 0.31274,-4.96577 0.27604,-7.45261 -0.0375,-2.53994 -0.19928,-5.08189 -0.59806,-7.59061 -0.3919,-2.46547 -1.01205,-4.89293 -1.81423,-7.25696 -0.76394,-2.25134 -1.70059,-4.4604 -3.0147,-6.44163 -0.88752,-1.33807 -1.95374,-2.57414 -3.25246,-3.51831 -1.28221,-0.93217 -2.82523,-1.5743 -4.41017,-1.54353 -1.62978,0.0316 -3.18823,0.77443 -4.43661,1.82263 -1.84492,1.54907 -3.0602,3.71712 -4.0192,5.92702 -1.06337,2.45043 -1.86096,5.0103 -2.49458,7.60527 -0.8133,3.33087 -1.35899,6.72705 -1.63007,10.14505 l 5.96897,3.09833 c 0.15465,-1.78122 0.45131,-3.55009 0.88625,-5.2843 0.33074,-1.31876 0.74234,-2.62004 1.29264,-3.86329 0.51121,-1.15493 1.15626,-2.27615 2.08716,-3.12975 0.68758,-0.63048 1.55842,-1.11128 2.49084,-1.14097 0.74904,-0.0239 1.48394,0.24475 2.124,0.63455 1.17353,0.71469 2.06347,1.82467 2.73215,3.02501 1.02257,1.83559 1.57132,3.90678 1.82141,5.99304 0.19163,1.59861 0.21315,3.21523 0.11373,4.82221 -0.0849,1.37204 -0.25895,2.74438 -0.63397,4.0669 -0.39861,1.4057 -1.02286,2.74516 -1.82166,3.9686 -0.81258,1.24455 -1.79981,2.36389 -2.78091,3.48043 -1.07617,1.22474 -2.15148,2.45452 -3.09839,3.78173 -0.86105,1.20687 -1.6123,2.4895 -2.29367,3.8062 -1.21829,2.35427 -2.21418,4.81769 -3.11476,7.31083 -0.93118,2.57786 -1.76256,5.1922 -2.47224,7.83962 -0.65297,2.43585 -1.20285,4.89963 -1.63481,7.38421 -0.42648,2.45303 -0.7378,4.92485 -1.0001,7.40082 -0.27247,2.57205 -0.49223,5.15024 -0.61816,7.73361 -0.11879,2.4369 -0.15402,4.87787 -0.10562,7.30905 z"
         id="path119" /></g></g></svg>
