<?xml version="1.0" encoding="UTF-8" standalone="no"?>
<!-- Created with Inkscape (http://www.inkscape.org/) -->

<svg
   width="24.843571mm"
   height="93.76017mm"
   viewBox="0 0 24.84357 93.760169"
   version="1.1"
   id="svg1"
   xml:space="preserve"
   xmlns="http://www.w3.org/2000/svg"
   xmlns:svg="http://www.w3.org/2000/svg"><defs
     id="defs1"><linearGradient
       id="swatch41"><stop
         style="stop-color:#000000;stop-opacity:1;"
         offset="0"
         id="stop41" /></linearGradient></defs><g
     id="layer1"
     style="display:inline"
     transform="translate(-796.89048,-136.16429)"><g
       id="g29"
       style="stroke:none"><path
         style="fill:#b2b2b2;fill-opacity:1;stroke:none;stroke-width:0.1;stroke-dasharray:none"
         d="m 802.28418,201.91899 1.09789,5.53815 c 0.25112,1.24666 0.63624,2.46628 1.14658,3.63108 0.49868,1.13819 1.14205,2.25379 2.12273,3.01695 0.57612,0.44834 1.27176,0.765 2.00069,0.80469 0.77492,0.0422 1.54283,-0.23036 2.19726,-0.64749 1.15119,-0.73376 1.97493,-1.88977 2.58862,-3.1092 1.15425,-2.29357 1.64974,-4.86132 1.93919,-7.41259 0.28594,-2.52036 0.3831,-5.06683 0.18687,-7.59575 -0.20727,-2.6712 -0.76136,-5.36764 -2.09814,-7.68956 -0.384,-0.66698 -0.84965,-1.31703 -1.50894,-1.71409 -0.33498,-0.20174 -0.71279,-0.33195 -1.10093,-0.37944 h -1.50477 v -14.68711 h 1.69153 c 0.35848,0.0197 0.72138,-0.0461 1.05009,-0.19049 0.66516,-0.29216 1.15699,-0.88608 1.49223,-1.5306 0.70065,-1.34706 0.79894,-2.91979 0.80526,-4.43815 0.01,-2.29966 -0.15961,-4.59954 -0.49217,-6.87505 -0.25033,-1.71281 -0.60212,-3.43839 -1.39689,-4.97616 -0.34965,-0.67652 -0.78755,-1.3159 -1.35564,-1.82306 -0.53621,-0.47871 -1.20568,-0.83852 -1.92301,-0.88457 -0.62586,-0.0402 -1.25303,0.16235 -1.78067,0.50134 -0.52764,0.33899 -0.96164,0.80859 -1.32319,1.32103 -0.87467,1.23968 -1.33672,2.72042 -1.69108,4.19564 -0.26665,1.11008 -0.47998,2.23296 -0.63901,3.36348 l -5.5782,-4.98349 c 0.25319,-1.41933 0.54038,-2.83258 0.86126,-4.23815 0.56456,-2.47297 1.23631,-4.93053 2.22068,-7.26833 0.80761,-1.91799 1.83392,-3.76276 3.21765,-5.31718 0.56735,-0.63734 1.19928,-1.2283 1.93741,-1.65637 0.66292,-0.38445 1.40804,-0.63201 2.17183,-0.69443 1.13559,-0.0928 2.28655,0.22879 3.2615,0.81841 1.15144,0.69636 2.0532,1.74107 2.81552,2.84995 0.91105,1.32522 1.64988,2.76288 2.28307,4.24115 1.03288,2.41138 1.78896,4.93737 2.31815,7.50672 0.49233,2.39038 0.78916,4.81868 0.95107,7.25385 0.16179,2.4334 0.18921,4.87437 0.14138,7.31267 -0.052,2.65201 -0.19406,5.31149 -0.67814,7.91946 -0.25502,1.37394 -0.60405,2.72853 -0.89467,4.09539 -0.0588,0.27675 -0.11559,0.55919 -0.0872,0.84069 0.0264,0.2622 0.12548,0.51073 0.21968,0.75684 0.60616,1.58363 1.05136,3.22525 1.40958,4.88265 0.28473,1.31736 0.51508,2.64624 0.70249,3.98093 0.24101,1.71636 0.41106,3.44246 0.52046,5.1722 0.2082,3.29182 0.19664,6.59645 0,9.88898 -0.15013,2.51369 -0.40852,5.02409 -0.87829,7.49806 -0.48835,2.57182 -1.20409,5.0978 -2.07571,7.5662 -0.47213,1.33706 -0.99068,2.65925 -1.60527,3.9371 -0.91153,1.89525 -2.04688,3.70591 -3.54965,5.17716 -0.68944,0.67498 -1.46481,1.28187 -2.35747,1.64804 -0.77396,0.31748 -1.62339,0.44546 -2.45754,0.38223 -0.88874,-0.0674 -1.75605,-0.34971 -2.53497,-0.78293 -1.19348,-0.6638 -2.16754,-1.66636 -2.99244,-2.75473 -0.87718,-1.15735 -1.60392,-2.42378 -2.22632,-3.73585 -1.17068,-2.4679 -1.97358,-5.09368 -2.6623,-7.73692 -0.63623,-2.44179 -1.1806,-4.9216 -1.31744,-7.4412 -0.0394,-0.72571 -0.0449,-1.45326 -0.0164,-2.17948 z"
         id="path167" /></g></g></svg>
