<?xml version="1.0" encoding="UTF-8" standalone="no"?>
<!-- Created with Inkscape (http://www.inkscape.org/) -->

<svg
   width="25.750454mm"
   height="93.719032mm"
   viewBox="0 0 25.750453 93.719031"
   version="1.1"
   id="svg1"
   xml:space="preserve"
   xmlns="http://www.w3.org/2000/svg"
   xmlns:svg="http://www.w3.org/2000/svg"><defs
     id="defs1"><linearGradient
       id="swatch41"><stop
         style="stop-color:#000000;stop-opacity:1;"
         offset="0"
         id="stop41" /></linearGradient></defs><g
     id="layer1"
     style="display:inline"
     transform="translate(-928.00997,-31.352048)"><g
       id="g31"
       style="stroke:none"><path
         style="fill:#b2b2b2;fill-opacity:1;stroke:none;stroke-width:0.1;stroke-dasharray:none"
         d="m 928.00997,119.08062 c 0.61197,0.83204 1.28606,1.61839 2.01479,2.35035 0.99832,1.00273 2.10726,1.90846 3.35749,2.57107 1.25022,0.66261 2.64883,1.07614 4.06377,1.06895 0.86687,-0.004 1.73058,-0.16615 2.54916,-0.45148 0.70875,-0.24705 1.38518,-0.58668 2.00667,-1.00752 2.2075,-1.73776 4.10663,-3.8661 5.58271,-6.25651 1.3706,-2.21959 2.37262,-4.65239 3.13381,-7.14753 0.74229,-2.43318 1.25941,-4.92961 1.69658,-7.43565 0.44689,-2.56177 0.81142,-5.138827 1.04668,-7.728621 0.22918,-2.522898 0.33555,-5.057783 0.28743,-7.590612 -0.0468,-2.462827 -0.23976,-4.923518 -0.59804,-7.360595 -0.3692,-2.511397 -0.91377,-4.996405 -1.61182,-7.436928 -0.99178,-3.467475 -2.31023,-6.877583 -4.32827,-9.866651 -0.98509,-1.459093 -2.19006,-2.853907 -3.80076,-3.564547 -0.97118,-0.428487 -2.05456,-0.585884 -3.11216,-0.494893 -0.84455,0.07266 -1.67836,0.302894 -2.42612,0.702135 -0.80261,0.428527 -1.50081,1.050993 -2.01826,1.79936 l 0.36803,-15.319238 h 15.31921 V 31.352048 h -20.88568 l -1.1961,46.762264 5.33644,4.186338 c 0.19362,-0.831756 0.42427,-1.654889 0.69104,-2.466145 0.54333,-1.652256 1.24732,-3.273214 2.30839,-4.651362 0.27764,-0.360603 0.58064,-0.705059 0.93589,-0.989515 0.35525,-0.284456 0.76569,-0.508062 1.21021,-0.605641 0.44659,-0.09803 0.91572,-0.06605 1.35802,0.04982 0.68061,0.178305 1.30068,0.551339 1.82533,1.020122 0.52466,0.468784 0.95816,1.031767 1.33825,1.623838 0.75455,1.175361 1.30662,2.471848 1.73315,3.801845 0.76215,2.376545 1.1297,4.865311 1.2921,7.355788 0.16476,2.526597 0.12072,5.071506 -0.2277,7.579383 -0.36924,2.657794 -1.08344,5.275057 -2.212,7.709507 -0.85847,1.85182 -1.96846,3.61 -3.4473,5.01685 -0.68189,0.6487 -1.44544,1.22305 -2.30422,1.60813 -0.85877,0.38508 -1.81859,0.57435 -2.75094,0.44585 -1.31295,-0.18095 -2.46765,-0.96787 -3.43217,-1.87688 -0.7653,-0.72125 -1.4453,-1.53292 -2.02136,-2.41272 z"
         id="path174" /></g></g></svg>
