<?xml version="1.0" encoding="UTF-8" standalone="no"?>
<!-- Created with Inkscape (http://www.inkscape.org/) -->

<svg
   width="25.167381mm"
   height="93.721725mm"
   viewBox="0 0 25.167381 93.721724"
   version="1.1"
   id="svg1"
   xml:space="preserve"
   xmlns="http://www.w3.org/2000/svg"
   xmlns:svg="http://www.w3.org/2000/svg"><defs
     id="defs1"><linearGradient
       id="swatch41"><stop
         style="stop-color:#000000;stop-opacity:1;"
         offset="0"
         id="stop41" /></linearGradient></defs><g
     id="layer1"
     style="display:inline"
     transform="translate(-965.29937,-31.352091)"><g
       id="g32"
       style="stroke:none"><path
         id="path204"
         style="fill:#b2b2b2;fill-opacity:1;stroke:none;stroke-width:0.1;stroke-dasharray:none"
         d="m 980.17996,31.352091 c -1.48198,2.384828 -2.80821,4.866357 -3.96823,7.42332 -1.15266,2.540746 -2.14003,5.153301 -3.04994,7.790739 -0.86507,2.507473 -1.66094,5.039569 -2.36678,7.596435 -0.99217,3.594105 -1.80636,7.236674 -2.4722,10.905278 -0.68552,3.777067 -1.21427,7.581129 -1.66708,11.393103 -0.43686,3.677698 -0.80322,7.364369 -1.04852,11.05979 -0.16318,2.458346 -0.27246,4.920452 -0.30076,7.384045 -0.0454,3.948615 0.11898,7.909359 0.74001,11.809099 0.54166,3.40133 1.43542,6.76122 2.86546,9.89449 1.00471,2.20136 2.28789,4.30402 4.01629,5.99756 0.63704,0.62419 1.33441,1.19191 2.1084,1.63505 0.90995,0.52098 1.94423,0.86832 2.99206,0.82992 1.03119,-0.0378 2.01887,-0.44503 2.89854,-0.98444 1.31215,-0.8046 2.42419,-1.90477 3.3817,-3.10988 1.7407,-2.19081 2.9935,-4.73928 3.90571,-7.38457 1.22348,-3.5479 1.85011,-7.28261 2.10736,-11.02671 0.1735,-2.52518 0.18118,-5.060281 0.0754,-7.589205 -0.15899,-3.80298 -0.5768,-7.608991 -1.52446,-11.295435 -0.65726,-2.556762 -1.56944,-5.050366 -2.76055,-7.406266 -0.84055,-1.662524 -1.82837,-3.266981 -3.10524,-4.62349 -1.01604,-1.079411 -2.24717,-2.011563 -3.67988,-2.392102 -0.76184,-0.202355 -1.56265,-0.243281 -2.34662,-0.161231 -1.00509,0.105187 -1.98819,0.41209 -2.87476,0.897103 0.24703,-1.216046 0.51231,-2.428531 0.79633,-3.636471 0.69159,-2.941309 1.49279,-5.85665 2.40089,-8.738484 0.73643,-2.56088 1.63571,-5.075138 2.69079,-7.522022 0.96525,-2.238545 2.06097,-4.420963 3.27939,-6.532418 z m -2.37453,52.41954 c 0.49129,0.007 0.98083,0.111305 1.42937,0.312126 0.75238,0.336853 1.36938,0.921501 1.88619,1.563728 1.25221,1.556082 1.97977,3.472097 2.46135,5.410523 0.61707,2.4838 0.86075,5.055062 0.79375,7.613489 -0.0669,2.554793 -0.45275,5.135063 -1.48983,7.470863 -0.60635,1.36569 -1.46651,2.67025 -2.71973,3.48402 -0.74362,0.48286 -1.62211,0.77865 -2.50838,0.75345 -0.79524,-0.0226 -1.57512,-0.30427 -2.22673,-0.76068 -1.14372,-0.8011 -1.85435,-2.0799 -2.40141,-3.36465 -1.0147,-2.38301 -1.60213,-4.94057 -1.80661,-7.522542 -0.17788,-2.246155 -0.0671,-4.518861 0.38758,-6.725688 0.32075,-1.556656 0.81477,-3.084768 1.55701,-4.490165 0.46423,-0.879001 1.02919,-1.712848 1.74666,-2.400887 0.43555,-0.41769 0.92514,-0.77916 1.45263,-1.072286 0.45408,-0.187957 0.94686,-0.278303 1.43815,-0.271301 z" /></g></g></svg>
