<?xml version="1.0" encoding="UTF-8" standalone="no"?>
<!-- Created with Inkscape (http://www.inkscape.org/) -->

<svg
   width="25.25606mm"
   height="93.718941mm"
   viewBox="0 0 25.256059 93.718939"
   version="1.1"
   id="svg1"
   xml:space="preserve"
   xmlns="http://www.w3.org/2000/svg"
   xmlns:svg="http://www.w3.org/2000/svg"><defs
     id="defs1"><linearGradient
       id="swatch41"><stop
         style="stop-color:#000000;stop-opacity:1;"
         offset="0"
         id="stop41" /></linearGradient></defs><g
     id="layer1"
     style="display:inline"
     transform="translate(-993.03614,-31.352048)"><g
       id="g33"
       style="stroke:none"><path
         style="fill:#b2b2b2;fill-opacity:1;stroke:none;stroke-width:0.1;stroke-dasharray:none"
         d="m 1008.9362,53.836389 c -0.606,2.490633 -1.2063,4.983058 -1.7404,7.490101 -0.528,2.478297 -0.9912,4.969981 -1.4311,7.465414 -0.4522,2.565006 -0.8799,5.13441 -1.2691,7.709734 -0.3711,2.455688 -0.7071,4.91681 -0.9921,7.383973 -0.2889,2.500681 -0.5252,5.007133 -0.7481,7.514556 -0.2208,2.484442 -0.4284,4.970076 -0.6179,7.457105 -0.1889,2.479068 -0.3597,4.959518 -0.5126,7.441068 -0.1231,2.42916 -0.2301,4.85914 -0.321,7.28972 -0.143,3.82643 -0.246,7.65435 -0.309,11.48293 h 6.1266 c 0.019,-2.57906 0.041,-5.15807 0.074,-7.73694 0.031,-2.45174 0.072,-4.90397 0.1972,-7.3527 0.1253,-2.44683 0.335,-4.88848 0.5479,-7.32925 0.3347,-3.837539 0.6775,-7.674664 1.0928,-11.504328 0.2697,-2.48689 0.5699,-4.970637 0.9219,-7.44721 0.5261,-3.701226 1.1677,-7.385181 1.8542,-11.060044 0.7003,-3.748715 1.4475,-7.489566 2.3229,-11.201285 0.6095,-2.584316 1.281,-5.153778 1.9927,-7.711851 0.6851,-2.462619 1.4075,-4.914872 2.167,-7.355635 l 10e-5,-15.019699 h -25.25606 v 14.973694 l 17.77086,0.01626 c -0.6512,2.507516 -1.264,5.000231 -1.8709,7.494383 z"
         id="path178" /></g></g></svg>
