<?xml version="1.0" encoding="UTF-8" standalone="no"?>
<!-- Created with Inkscape (http://www.inkscape.org/) -->

<svg
   width="25.254124mm"
   height="93.715286mm"
   viewBox="0 0 25.254123 93.715285"
   version="1.1"
   id="svg1"
   xml:space="preserve"
   xmlns="http://www.w3.org/2000/svg"
   xmlns:svg="http://www.w3.org/2000/svg"><defs
     id="defs1"><linearGradient
       id="swatch41"><stop
         style="stop-color:#000000;stop-opacity:1;"
         offset="0"
         id="stop41" /></linearGradient></defs><g
     id="layer1"
     style="display:inline"
     transform="translate(-1025.0663,-31.352091)"><g
       id="g34"
       style="stroke:none"><path
         id="path187-5"
         style="fill:#b2b2b2;fill-opacity:1;stroke:none;stroke-width:0.1;stroke-dasharray:none"
         d="m 1037.6932,31.352091 c -0.8483,0.01576 -1.6754,0.212357 -2.4246,0.572575 -1.1632,0.559252 -2.1103,1.492709 -2.8939,2.518193 -1.0792,1.412213 -1.8831,3.016014 -2.5631,4.658113 -0.9973,2.408186 -1.7414,4.918566 -2.2728,7.470346 -0.4974,2.388646 -0.809,4.81418 -0.9715,7.248653 -0.1651,2.473786 -0.1762,4.957984 -0.033,7.433138 0.1275,2.552928 0.4931,5.093923 1.0899,7.579382 0.4504,1.875567 1.0319,3.719353 1.7399,5.497339 -0.3413,0.742266 -0.6624,1.510166 -0.9632,2.285649 -0.9207,2.37395 -1.6493,4.822787 -2.1621,7.316866 -0.4911,2.388561 -0.7839,4.815063 -0.9617,7.247102 -0.19,2.543452 -0.2467,5.095917 -0.1897,7.645529 0.056,2.514514 0.226,5.029894 0.6181,7.514274 0.3908,2.47612 1.0019,4.91704 1.8205,7.28637 0.4419,1.27897 0.9442,2.53798 1.5286,3.75843 0.6858,1.4322 1.4881,2.81605 2.4877,4.04988 0.736,0.90847 1.5782,1.73308 2.5228,2.42208 0.4207,0.30683 0.8644,0.58797 1.3457,0.78651 0.2565,0.10579 0.5223,0.18757 0.7922,0.25167 0.4874,0.11571 0.9884,0.17359 1.4893,0.17259 0.4953,0.007 0.9914,-0.0478 1.4728,-0.16433 0.2914,-0.0705 0.5777,-0.16329 0.8542,-0.27905 0.4605,-0.1928 0.8926,-0.44869 1.3017,-0.73484 0.9587,-0.67053 1.7925,-1.50861 2.5234,-2.42207 0.992,-1.23967 1.7993,-2.61895 2.4872,-4.04988 0.5863,-1.21957 1.0879,-2.4792 1.5291,-3.75843 0.8174,-2.36974 1.4293,-4.81034 1.8205,-7.28638 0.3925,-2.48433 0.5621,-4.99974 0.6181,-7.514268 0.057,-2.549613 0,-5.102075 -0.1897,-7.645528 -0.1778,-2.432041 -0.4706,-4.858543 -0.9617,-7.247103 -0.5128,-2.494078 -1.2419,-4.942915 -2.1626,-7.316866 -0.3008,-0.775483 -0.622,-1.543138 -0.9633,-2.301669 0.708,-1.794252 1.2901,-3.638308 1.7405,-5.513875 0.5968,-2.485459 0.9624,-5.026454 1.0899,-7.579382 0.1431,-2.475154 0.132,-4.959352 -0.033,-7.433138 -0.1625,-2.434473 -0.4746,-4.860007 -0.972,-7.248653 -0.5314,-2.55178 -1.275,-5.06216 -2.2723,-7.470346 -0.68,-1.642099 -1.4839,-3.2459 -2.5631,-4.658113 -0.7836,-1.025484 -1.7307,-1.958941 -2.8939,-2.518193 -0.7492,-0.360218 -1.5764,-0.556815 -2.4247,-0.572575 z m 0,15.295191 c 0.2657,0.02282 0.5117,0.07533 0.7478,0.156063 0.6429,0.219793 1.201,0.644601 1.6604,1.145149 0.6284,0.684646 1.0845,1.511009 1.4516,2.364714 0.5085,1.182433 0.8568,2.43184 1.0614,3.702616 0.1895,1.177507 0.2562,2.373458 0.2232,3.565674 -0.035,1.256801 -0.1807,2.511651 -0.4635,3.736723 -0.2794,1.210664 -0.6949,2.396429 -1.3131,3.474207 -0.2691,0.469196 -0.5774,0.918786 -0.9493,1.311547 -0.2911,0.307444 -0.6204,0.578736 -0.9782,0.805119 -0.2287,0.144667 -0.47,0.271304 -0.7271,0.355534 -0.2296,0.07523 -0.4707,0.116106 -0.7132,0.120406 -0.2425,-0.0043 -0.4835,-0.04518 -0.7131,-0.120406 -0.2571,-0.08423 -0.4984,-0.210867 -0.7271,-0.355534 -0.3578,-0.226383 -0.6871,-0.497675 -0.9782,-0.805119 -0.3719,-0.392761 -0.6802,-0.842351 -0.9493,-1.311547 -0.6182,-1.077778 -1.0342,-2.263543 -1.3136,-3.474207 -0.2828,-1.225072 -0.4286,-2.479922 -0.4636,-3.736723 -0.033,-1.192216 0.034,-2.388167 0.2238,-3.565674 0.2046,-1.270776 0.5529,-2.520183 1.0614,-3.702616 0.3671,-0.853705 0.8232,-1.680068 1.4516,-2.364714 0.4594,-0.500548 1.0175,-0.925356 1.6604,-1.145149 0.2361,-0.08073 0.482,-0.133243 0.7477,-0.156063 z m 0,36.038627 c 0.3235,0.01332 0.6384,0.07557 0.9364,0.183968 0.6162,0.224138 1.1468,0.638921 1.6066,1.106393 0.9595,0.975652 1.6432,2.191072 2.1798,3.449918 0.5245,1.230534 0.9186,2.514968 1.2149,3.819405 0.2795,1.230518 0.4729,2.481541 0.5529,3.740857 0.083,1.309394 0.044,2.624553 -0.065,3.93206 -0.1048,1.25797 -0.2746,2.51245 -0.5653,3.74086 -0.2899,1.225 -0.7015,2.42576 -1.2925,3.53725 -0.3918,0.73689 -0.8612,1.43188 -1.3927,2.07532 -0.4475,0.54174 -0.9492,1.05505 -1.5657,1.39217 -0.4916,0.26883 -1.0482,0.418 -1.6093,0.4315 -0.5611,-0.0135 -1.1176,-0.16267 -1.6092,-0.4315 -0.6165,-0.33712 -1.1183,-0.85043 -1.5658,-1.39217 -0.5315,-0.64344 -1.0008,-1.33843 -1.3926,-2.07532 -0.591,-1.11149 -1.0026,-2.31225 -1.2925,-3.53725 -0.2907,-1.22841 -0.4605,-2.48289 -0.5653,-3.74086 -0.109,-1.307507 -0.1481,-2.622666 -0.065,-3.93206 0.08,-1.259316 0.2734,-2.510339 0.5529,-3.740857 0.2963,-1.304437 0.6904,-2.588871 1.2149,-3.819405 0.5366,-1.258846 1.2203,-2.474266 2.1798,-3.449918 0.4598,-0.467472 0.9904,-0.882255 1.6066,-1.106393 0.298,-0.108395 0.6128,-0.170648 0.9363,-0.183968 z" /></g></g></svg>
