<?xml version="1.0" encoding="UTF-8" standalone="no"?>
<!-- Created with Inkscape (http://www.inkscape.org/) -->

<svg
   width="25.264364mm"
   height="93.719337mm"
   viewBox="0 0 25.264364 93.719336"
   version="1.1"
   id="svg1"
   xml:space="preserve"
   xmlns="http://www.w3.org/2000/svg"
   xmlns:svg="http://www.w3.org/2000/svg"><defs
     id="defs1"><linearGradient
       id="swatch41"><stop
         style="stop-color:#000000;stop-opacity:1;"
         offset="0"
         id="stop41" /></linearGradient></defs><g
     id="layer1"
     style="display:inline"
     transform="translate(-1057.6157,-31.351583)"><g
       id="g35"
       style="stroke:none"><path
         id="path181"
         style="fill:#b2b2b2;fill-opacity:1;stroke:none;stroke-width:0.1;stroke-dasharray:none"
         d="m 1070.2385,31.352091 c -0.8379,0.01083 -1.6722,0.194455 -2.4406,0.52865 -0.9719,0.422699 -1.828,1.078709 -2.5854,1.820044 -1.5363,1.503595 -2.6865,3.361906 -3.6111,5.302519 -1.1164,2.342986 -1.9232,4.825873 -2.5208,7.351489 -0.5683,2.401832 -0.9493,4.846286 -1.1875,7.302914 -0.1688,1.74062 -0.2665,3.488135 -0.2765,5.236889 -0.012,2.009269 0.092,4.019039 0.293,6.018238 0.1299,1.290321 0.3005,2.576477 0.5204,3.854545 0.4428,2.573766 1.086,5.117102 2.0004,7.563362 0.4736,1.267024 1.02,2.507049 1.6428,3.707784 0.8868,1.709632 1.9415,3.354326 3.3259,4.693254 0.9249,0.894507 2.0128,1.654612 3.2488,2.01228 0.6882,0.199173 1.4134,0.269833 2.1271,0.207223 0.4904,-0.06343 0.9743,-0.175137 1.4428,-0.333313 0.4584,-0.15478 0.9021,-0.353652 1.3224,-0.601514 -0.3178,1.710375 -0.6852,3.419612 -1.1013,5.117 -0.61,2.488242 -1.3253,4.950897 -2.1595,7.373194 -0.9137,2.653051 -1.9704,5.257401 -3.1802,7.789191 -0.9877,2.06698 -2.0773,4.08526 -3.2634,6.04511 l 3.3445,12.72997 c 1.5447,-2.48116 2.9464,-5.05106 4.1962,-7.69307 1.1381,-2.40596 2.1501,-4.87157 3.0416,-7.3794 0.8715,-2.45155 1.6273,-4.94274 2.3255,-7.44915 0.704,-2.5273 1.3497,-5.070724 1.9358,-7.627962 0.5558,-2.472771 1.0615,-4.957038 1.5172,-7.450191 0.4416,-2.416197 0.8363,-4.841132 1.1669,-7.275008 0.3401,-2.503847 0.6126,-5.016374 0.8521,-7.53184 0.2435,-2.557494 0.4527,-5.118781 0.5664,-7.68532 0.11,-2.492515 0.1309,-4.989769 0.045,-7.483264 -0.083,-2.411719 -0.264,-4.821079 -0.5984,-7.210929 -0.3724,-2.661187 -0.9355,-5.300827 -1.788,-7.849133 -0.8657,-2.587814 -2.0398,-5.093703 -3.6923,-7.26519 -0.9761,-1.28266 -2.1455,-2.463635 -3.5987,-3.161047 -0.9048,-0.43422 -1.9075,-0.670295 -2.911,-0.657325 z m 0.2879,15.066781 c 0.3548,0.01166 0.7068,0.07374 1.0423,0.192236 0.55,0.194226 1.0418,0.530768 1.4712,0.925525 0.8098,0.744346 1.4064,1.69388 1.8831,2.685108 1.0656,2.215939 1.567,4.670066 1.7436,7.122562 0.1819,2.526675 0.028,5.077039 -0.4574,7.563363 -0.386,1.560437 -0.9924,3.066538 -1.7952,4.459159 -0.521,0.903696 -1.1522,1.786321 -2.0495,2.318205 -0.5738,0.340099 -1.2404,0.521215 -1.9074,0.518315 -0.6347,-0.05213 -1.258,-0.238201 -1.8174,-0.542603 -1.0886,-0.592441 -1.8928,-1.600182 -2.5332,-2.661336 -0.7653,-1.268068 -1.3404,-2.649698 -1.7157,-4.082438 -0.6237,-2.381075 -0.692,-4.877999 -0.5059,-7.332369 0.1902,-2.507709 0.6525,-5.026427 1.7224,-7.302397 0.3444,-0.732526 0.7525,-1.440316 1.2759,-2.057755 0.5234,-0.617439 1.1663,-1.143952 1.9084,-1.467094 0.5438,-0.236789 1.1434,-0.35791 1.7348,-0.338481 z" /></g></g></svg>
