<?xml version="1.0" encoding="UTF-8" standalone="no"?>
<!-- Created with Inkscape (http://www.inkscape.org/) -->

<svg
   width="25.603477mm"
   height="93.729164mm"
   viewBox="0 0 25.603477 93.729163"
   version="1.1"
   id="svg1"
   xml:space="preserve"
   xmlns="http://www.w3.org/2000/svg"
   xmlns:svg="http://www.w3.org/2000/svg"><defs
     id="defs1"><linearGradient
       id="swatch41"><stop
         style="stop-color:#000000;stop-opacity:1;"
         offset="0"
         id="stop41" /></linearGradient></defs><g
     id="layer1"
     style="display:inline"
     transform="translate(-286.71532,-31.346924)"><g
       id="g2"
       style="stroke:none"><path
         id="path53"
         style="fill:#b2b2b2;fill-opacity:1;stroke:none;stroke-width:0.1;stroke-dasharray:none"
         d="m 286.71532,31.346924 v 93.729166 h 14.88488 c 0.74426,-0.0468 1.47917,-0.23964 2.15077,-0.56379 1.66349,-0.80289 2.84244,-2.34744 3.78375,-3.93671 1.27892,-2.15928 2.23856,-4.5 2.93263,-6.91173 1.04687,-3.6376 1.49122,-7.42323 1.71411,-11.2019 0.1448,-2.45466 0.19798,-4.917937 0.046,-7.372157 -0.15823,-2.555083 -0.53885,-5.093073 -1.04696,-7.60212 -0.25531,-1.260699 -0.54287,-2.515059 -0.86248,-3.761011 -0.38896,-1.289778 -0.88971,-2.545615 -1.495,-3.749125 -0.71225,-1.416169 -1.56934,-2.759523 -2.55333,-4.002339 0.7838,-1.030391 1.47067,-2.134541 2.04897,-3.292823 0.61073,-1.223251 1.1003,-2.506728 1.45882,-3.826123 0.38023,-1.262544 0.69296,-2.545731 0.93638,-3.841626 0.22715,-1.209323 0.39408,-2.429662 0.49971,-3.655591 l 0.24288,-3.769279 0.0119,-3.707784 -0.19586,-3.726387 c -0.0651,-1.266426 -0.19155,-2.529626 -0.3793,-3.783748 -0.19786,-1.321689 -0.46332,-2.632975 -0.7705,-3.933611 -0.29829,-1.262997 -0.63715,-2.519582 -1.11569,-3.72587 -0.51374,-1.294995 -1.18778,-2.526765 -2.00143,-3.657658 -0.5429,-0.823859 -1.19385,-1.5758 -1.93166,-2.230872 -0.26174,-0.232381 -0.53513,-0.453334 -0.82838,-0.644405 -0.79694,-0.51925 -1.74039,-0.811127 -2.69131,-0.832507 z m 5.9371,15.023889 h 8.92917 c 0.26723,0.04414 0.52771,0.127997 0.7705,0.248047 0.63561,0.314277 1.13023,0.867681 1.47691,1.486214 0.34668,0.618532 0.55693,1.303566 0.73639,1.989543 0.32078,1.226259 0.55153,2.477928 0.64647,3.74189 0.0943,1.255147 0.0541,2.517211 -0.0465,3.771863 -0.0959,1.195771 -0.24683,2.38687 -0.45217,3.568774 -0.23452,1.279369 -0.55963,2.542078 -0.97255,3.775481 -0.31849,0.951357 -0.69175,1.890841 -1.21284,2.748152 -0.23089,0.379857 -0.49518,0.74755 -0.84595,1.02061 -0.14791,0.115142 -0.31029,0.212493 -0.48472,0.28112 -0.18623,0.07327 -0.38593,0.1133 -0.58601,0.117822 h -7.95869 z m 0,37.723796 h 7.75198 c 0.18472,0.0038 0.37686,0.0459 0.55087,0.108003 0.41566,0.148339 0.75745,0.449872 1.06505,0.766362 0.71039,0.730914 1.29565,1.577847 1.77302,2.478401 0.61684,1.163661 1.05586,2.417369 1.35703,3.699516 0.29337,1.248941 0.45732,2.52503 0.57154,3.802869 0.11505,1.287042 0.18034,2.578909 0.18087,3.871081 5.5e-4,1.273089 -0.0618,2.546979 -0.2124,3.811139 -0.14943,1.25458 -0.3873,2.50467 -0.82268,3.69073 -0.39929,1.08774 -0.96338,2.11422 -1.65933,3.04064 -0.12061,0.16055 -0.2476,0.32067 -0.41187,0.43615 -0.14239,0.1001 -0.3102,0.16363 -0.48317,0.18293 h -9.66091 z" /></g></g></svg>
