<?xml version="1.0" encoding="UTF-8" standalone="no"?>
<!-- Created with Inkscape (http://www.inkscape.org/) -->

<svg
   width="24.988825mm"
   height="93.749123mm"
   viewBox="0 0 24.988824 93.749121"
   version="1.1"
   id="svg1"
   xml:space="preserve"
   xmlns="http://www.w3.org/2000/svg"
   xmlns:svg="http://www.w3.org/2000/svg"><defs
     id="defs1"><linearGradient
       id="swatch41"><stop
         style="stop-color:#000000;stop-opacity:1;"
         offset="0"
         id="stop41" /></linearGradient></defs><g
     id="layer1"
     style="display:inline"
     transform="translate(-316.64642,-31.321867)"><g
       id="g3"
       style="stroke:none"><path
         style="fill:#b2b2b2;fill-opacity:1;stroke:none;stroke-width:0.1;stroke-dasharray:none"
         d="m 341.59449,49.956701 c -0.0898,-1.213877 -0.3107,-2.414852 -0.58466,-3.600815 -0.30758,-1.331492 -0.68234,-2.646984 -1.10265,-3.947298 -0.40493,-1.252749 -0.85302,-2.493698 -1.40894,-3.68714 -0.60017,-1.288455 -1.32517,-2.518717 -2.16142,-3.66807 -0.39413,-0.541692 -0.81356,-1.066194 -1.27813,-1.548828 -0.74013,-0.768901 -1.60729,-1.436394 -2.60371,-1.81867 -0.67533,-0.259087 -1.40227,-0.382807 -2.12529,-0.361703 -0.97964,-0.01183 -1.96131,0.215704 -2.83586,0.657301 -1.40772,0.710822 -2.49146,1.940891 -3.33753,3.271724 -0.70398,1.107321 -1.26619,2.298599 -1.78053,3.505745 -0.51653,1.212315 -0.98696,2.4448 -1.38908,3.699722 -0.42439,1.324461 -0.77222,2.672318 -1.09118,4.026045 -0.28723,1.219039 -0.55127,2.443546 -0.79127,3.672755 -0.23796,1.218777 -0.45229,2.442115 -0.64904,3.668218 -0.20412,1.271955 -0.38934,2.546972 -0.55232,3.824848 -0.15218,1.193179 -0.28497,2.388831 -0.39831,3.586324 -0.11397,1.240602 -0.21698,2.48221 -0.30903,3.724632 -0.0945,1.274969 -0.17736,2.550758 -0.26438,3.826256 -0.0872,1.277483 -0.17846,2.554944 -0.22771,3.83445 -0.049,1.273353 -0.0563,2.547927 -0.057,3.822221 -5.3e-4,1.226707 0.005,2.453445 0.0246,3.679995 0.0195,1.218657 0.0528,2.437042 0.0855,3.655417 0.0331,1.235519 0.0655,2.471319 0.13855,3.705124 0.0711,1.201063 0.18052,2.399483 0.28884,3.597759 0.12382,1.369635 0.24619,2.739525 0.39799,4.106339 0.13663,1.230135 0.29707,2.457492 0.45951,3.684484 0.16383,1.237464 0.32973,2.474764 0.52049,3.708364 0.19181,1.24035 0.40872,2.47681 0.65058,3.70837 0.26754,1.22853 0.54949,2.45392 0.84577,3.67584 0.30193,1.24521 0.61899,2.48769 1.00841,3.70837 0.40535,1.27063 0.88846,2.51553 1.41504,3.74089 0.47614,1.10799 0.98923,2.2029 1.6102,3.23669 0.93121,1.55027 2.14913,2.99277 3.76516,3.80451 0.30993,0.15568 0.63238,0.28701 0.96464,0.3865 0.492,0.14732 1.00501,0.22432 1.51858,0.22792 0.47269,-0.0148 0.94351,-0.0883 1.39815,-0.21856 0.45357,-0.12989 0.89097,-0.3161 1.29898,-0.55299 0.84062,-0.52767 1.59605,-1.19074 2.22827,-1.95584 0.2916,-0.35289 0.55679,-0.7268 0.81325,-1.106 0.8348,-1.23436 1.58014,-2.52921 2.22827,-3.87102 l 1.41501,-3.70837 0.97589,-3.6921 c 0.31542,-1.21962 0.55459,-2.45896 0.71565,-3.70837 0.10024,-0.77758 0.17024,-1.55906 0.20981,-2.34208 l -5.69103,-4.45659 c -0.16267,1.02945 -0.35252,2.05461 -0.56929,3.07404 -0.27449,1.2909 -0.59461,2.58 -1.12225,3.78969 -0.4459,1.0223 -1.04499,1.98906 -1.84624,2.7649 -0.27003,0.26147 -0.56671,0.50328 -0.91082,0.65451 -0.41033,0.18032 -0.87129,0.22322 -1.31769,0.18306 -0.3852,-0.0346 -0.76765,-0.1306 -1.11061,-0.30938 -0.54306,-0.28308 -0.9611,-0.75779 -1.31664,-1.25642 -0.46926,-0.65812 -0.85227,-1.37529 -1.17095,-2.11811 -0.51268,-1.19499 -0.85926,-2.454 -1.17083,-3.71644 -0.30268,-1.22645 -0.57394,-2.46093 -0.79698,-3.704332 -0.22805,-1.271392 -0.40555,-2.551226 -0.58564,-3.830294 -0.18014,-1.279424 -0.36297,-2.558684 -0.50836,-3.842522 -0.13784,-1.21721 -0.24196,-2.438016 -0.33361,-3.659574 -0.0918,-1.224224 -0.1712,-2.449462 -0.22745,-3.675838 -0.0569,-1.23944 -0.0901,-2.479886 -0.10971,-3.720478 -0.0199,-1.263171 -0.0257,-2.526665 -0.004,-3.789809 0.0209,-1.22174 0.0673,-2.442911 0.12191,-3.663609 0.0573,-1.281695 0.12372,-2.563119 0.2194,-3.842523 0.0955,-1.276709 0.22011,-2.551239 0.37409,-3.822221 0.15352,-1.267229 0.33617,-2.530729 0.52049,-3.793847 0.17716,-1.21412 0.35593,-2.428322 0.57755,-3.635115 0.22886,-1.246159 0.50339,-2.484065 0.82953,-3.708369 0.33209,-1.246666 0.71816,-2.480503 1.20359,-3.675837 0.30247,-0.744831 0.64695,-1.480259 1.1304,-2.122554 0.2944,-0.391123 0.64175,-0.747308 1.05334,-1.012335 0.43149,-0.277842 0.93146,-0.451247 1.44336,-0.487884 0.43002,-0.03078 0.86667,0.03493 1.26859,0.190905 0.67872,0.330067 1.2851,0.80791 1.76471,1.390639 0.48706,0.591762 0.83884,1.281655 1.16295,1.976168 0.26755,0.573299 0.51944,1.155133 0.71565,1.756595 0.21083,0.646287 0.35632,1.311952 0.48741,1.979001 0.15183,0.772591 0.28483,1.548882 0.39884,2.32795 l 5.53194,-5.382435 c -0.007,-0.273576 -0.0204,-0.546983 -0.0406,-0.819901 z"
         id="path58" /></g></g></svg>
