<?xml version="1.0" encoding="UTF-8" standalone="no"?>
<!-- Created with Inkscape (http://www.inkscape.org/) -->

<svg
   width="25.714201mm"
   height="93.729164mm"
   viewBox="0 0 25.714201 93.729163"
   version="1.1"
   id="svg1"
   xml:space="preserve"
   xmlns="http://www.w3.org/2000/svg"
   xmlns:svg="http://www.w3.org/2000/svg"><defs
     id="defs1"><linearGradient
       id="swatch41"><stop
         style="stop-color:#000000;stop-opacity:1;"
         offset="0"
         id="stop41" /></linearGradient></defs><g
     id="layer1"
     style="display:inline"
     transform="translate(-350.34296,-31.346924)"><g
       id="g4"
       style="stroke:none"><path
         id="path136"
         style="fill:#b2b2b2;fill-opacity:1;stroke:none;stroke-width:0.1;stroke-dasharray:none"
         d="m 350.34296,31.346924 v 93.729166 h 10.44225 c 0.64497,-0.005 1.28931,-0.0843 1.91617,-0.23616 0.79776,-0.19323 1.5676,-0.50463 2.27169,-0.92656 1.14074,-0.68359 2.0944,-1.6477 2.88768,-2.71508 0.87943,-1.18329 1.57074,-2.49533 2.19315,-3.83181 0.56145,-1.20557 1.07037,-2.43629 1.5105,-3.69125 0.85023,-2.42427 1.44174,-4.93177 1.94407,-7.45122 0.49999,-2.50769 0.9128,-5.03272 1.23765,-7.56905 0.25052,-2.465612 0.47175,-4.934318 0.66301,-7.405233 0.19301,-2.493505 0.35588,-4.989568 0.47025,-7.487915 0.11382,-2.486605 0.17877,-4.975451 0.17777,-7.46466 -10e-4,-2.516446 -0.0717,-5.033296 -0.22996,-7.544759 -0.15979,-2.53509 -0.40878,-5.063235 -0.66663,-7.590235 -0.24962,-2.44634 -0.50764,-4.893027 -0.86713,-7.325651 -0.36444,-2.466162 -0.83395,-4.918768 -1.47949,-7.326684 -0.35992,-1.342532 -0.77409,-2.670713 -1.24179,-3.979602 l -1.47226,-3.679879 c -0.57343,-1.329049 -1.29647,-2.593424 -2.15129,-3.761528 -0.76045,-1.039139 -1.63504,-2.011165 -2.69596,-2.740918 -0.51557,-0.354634 -1.07611,-0.651558 -1.67742,-0.824756 -0.37614,-0.108338 -0.76673,-0.167816 -1.15807,-0.176216 z m 6.09368,15.024923 3.86437,0.01705 c 0.39045,0.0042 0.77998,0.06207 1.15651,0.165881 0.49995,0.137843 0.97688,0.356965 1.40819,0.644922 1.09825,0.733224 1.85553,1.873785 2.4815,3.036507 1.22117,2.268273 2.05443,4.732066 2.61896,7.245553 0.55137,2.454888 0.84944,4.959315 1.08676,7.464144 0.24411,2.57651 0.42489,5.159401 0.51779,7.74578 0.088,2.450483 0.0973,4.90348 0.0289,7.35459 -0.0692,2.482265 -0.21786,4.961739 -0.35088,7.441406 -0.13874,2.58644 -0.26094,5.177322 -0.59945,7.745264 -0.32891,2.495132 -0.86221,4.965026 -1.63142,7.361306 -0.48633,1.51503 -1.07481,3.01487 -1.97508,4.32687 -0.6599,0.9617 -1.4878,1.81569 -2.46858,2.44688 -0.23687,0.15244 -0.4833,0.29279 -0.74724,0.39119 -0.2888,0.10771 -0.59662,0.16492 -0.90485,0.16692 h -4.48552 z" /></g></g></svg>
