<?xml version="1.0" encoding="UTF-8" standalone="no"?>
<!-- Created with Inkscape (http://www.inkscape.org/) -->

<svg
   width="25.315792mm"
   height="93.719681mm"
   viewBox="0 0 25.315792 93.719679"
   version="1.1"
   id="svg1"
   xml:space="preserve"
   xmlns="http://www.w3.org/2000/svg"
   xmlns:svg="http://www.w3.org/2000/svg"><defs
     id="defs1"><linearGradient
       id="swatch41"><stop
         style="stop-color:#000000;stop-opacity:1;"
         offset="0"
         id="stop41" /></linearGradient></defs><g
     id="layer1"
     style="display:inline"
     transform="translate(-279.1598,-136.178)"><g
       id="g7"
       style="stroke:none"><path
         style="fill:#b2b2b2;fill-opacity:1;stroke:none;stroke-width:0.1;stroke-dasharray:none"
         d="m 304.42959,199.93216 c -0.045,2.44104 -0.12258,4.88328 -0.34505,7.31458 -0.22754,2.48666 -0.60683,4.96031 -1.16134,7.39501 -0.31503,1.38321 -0.68653,2.7536 -1.11568,4.10576 -0.75844,2.38967 -1.70538,4.73809 -3.0695,6.84165 -0.6338,0.97735 -1.36117,1.90393 -2.24674,2.66069 -0.56294,0.48106 -1.18953,0.89191 -1.87116,1.18121 -0.58849,0.24977 -1.21587,0.40766 -1.85249,0.4662 -1.16698,0.0128 -2.33605,-0.26416 -3.37333,-0.79901 -1.37042,-0.70663 -2.48222,-1.83978 -3.38365,-3.09071 -1.6454,-2.28334 -2.64181,-4.97074 -3.38405,-7.68552 -0.65809,-2.40699 -1.13111,-4.86127 -1.52091,-7.32597 -0.38001,-2.40283 -0.68149,-4.81778 -0.92443,-7.23832 -0.25449,-2.53553 -0.44478,-5.07722 -0.59806,-7.62088 -0.15282,-2.53592 -0.26887,-5.07411 -0.34065,-7.61362 -0.10529,-3.72536 -0.11527,-7.45384 0,-11.1789 0.0791,-2.55594 0.21715,-5.11005 0.41402,-7.65962 l 0.57504,-7.4066 c 0.23024,-2.46553 0.5603,-4.92174 0.9891,-7.36059 0.43051,-2.44858 0.96101,-4.8814 1.65596,-7.26843 0.42121,-1.44677 0.90376,-2.87888 1.52955,-4.24963 0.57559,-1.26079 1.27191,-2.46745 2.09048,-3.58586 0.63679,-0.87005 1.35363,-1.6923 2.21389,-2.34226 0.45682,-0.34514 0.95183,-0.63972 1.47307,-0.87662 0.68485,-0.25545 1.41233,-0.3962 2.14304,-0.41463 0.82301,-0.0208 1.64967,0.11404 2.42345,0.39518 0.78777,0.33318 1.52459,0.7865 2.17715,1.33945 0.71015,0.60175 1.31722,1.31747 1.8565,2.07616 1.27134,1.78859 2.17188,3.81605 2.89512,5.88784 0.62034,1.77703 1.11609,3.59607 1.5289,5.43244 0.3964,1.76338 0.71667,3.54386 0.95961,5.33484 l -5.62631,4.52802 c -0.16482,-0.83398 -0.35663,-1.66263 -0.57505,-2.4842 -0.32789,-1.23336 -0.71612,-2.45179 -1.1961,-3.63429 -0.27154,-0.66898 -0.57434,-1.32976 -0.98037,-1.92675 -0.40603,-0.59699 -0.92096,-1.13095 -1.54998,-1.48534 -0.53136,-0.29937 -1.14127,-0.46496 -1.75094,-0.44879 -0.78728,0.0209 -1.55492,0.34739 -2.14797,0.86559 -0.84381,0.73732 -1.31346,1.80551 -1.7075,2.8545 -0.46123,1.22787 -0.8552,2.48103 -1.17898,3.75208 -0.61454,2.41251 -0.97484,4.88296 -1.24487,7.35782 -0.28641,2.625 -0.47241,5.26037 -0.59238,7.89822 -0.0537,1.18018 -0.0942,2.36096 -0.12141,3.54205 v 13.86455 c 0.0495,1.63101 0.13244,3.261 0.24865,4.88862 0.1794,2.51267 0.4383,5.02045 0.81731,7.51084 0.18773,1.2335 0.40501,2.46312 0.68569,3.67884 0.40292,1.74518 0.9449,3.4795 1.87041,5.01295 0.47545,0.78775 1.07575,1.53867 1.89546,1.95661 0.4759,0.24264 1.01367,0.36318 1.54755,0.34503 0.80063,-0.0272 1.57438,-0.36584 2.19073,-0.87757 1.05553,-0.87637 1.63388,-2.19662 2.04076,-3.50681 0.65441,-2.10724 0.95844,-4.30638 1.18677,-6.50105 0.23289,-2.23848 0.38975,-4.48487 0.47022,-6.73399 h -6.64755 v -14.65219 h 12.67402 v 13.09956 c -0.004,1.46838 -0.0191,2.92523 -0.046,4.38186 z"
         id="path142" /></g></g></svg>
