<?xml version="1.0" encoding="UTF-8" standalone="no"?>
<!-- Created with Inkscape (http://www.inkscape.org/) -->

<svg
   width="23.692701mm"
   height="93.730545mm"
   viewBox="0 0 23.692701 93.730544"
   version="1.1"
   id="svg1"
   xml:space="preserve"
   xmlns="http://www.w3.org/2000/svg"
   xmlns:svg="http://www.w3.org/2000/svg"><defs
     id="defs1"><linearGradient
       id="swatch41"><stop
         style="stop-color:#000000;stop-opacity:1;"
         offset="0"
         id="stop41" /></linearGradient></defs><g
     id="layer1"
     style="display:inline"
     transform="translate(-375.34431,-136.1801)"><g
       id="g10"
       style="stroke:none"><path
         style="fill:#b2b2b2;fill-opacity:1;stroke:none;stroke-width:0.1;stroke-dasharray:none"
         d="m 398.73483,203.79425 c -0.19766,2.45833 -0.49226,4.90953 -0.91233,7.33976 -0.42873,2.48036 -0.98871,4.94042 -1.74591,7.34097 -0.436,1.38226 -0.93771,2.74534 -1.54659,4.06063 -0.82202,1.77571 -1.84841,3.47392 -3.1956,4.89306 -0.93894,0.98909 -2.05967,1.85167 -3.36639,2.24205 -0.5911,0.17659 -1.21093,0.25323 -1.82765,0.23805 -0.43721,-0.0108 -0.87564,-0.0679 -1.2915,-0.20331 -0.3586,-0.11674 -0.6983,-0.29132 -1.00197,-0.51494 -1.24315,-0.75784 -2.35157,-1.73599 -3.25814,-2.87523 -0.90968,-1.14314 -1.61155,-2.43878 -2.20818,-3.77231 -0.66813,-1.49332 -1.20925,-3.04042 -1.70215,-4.60037 -0.49223,-1.55783 -0.93721,-3.13058 -1.33411,-4.71538 l 5.19843,-7.19958 c 0.48368,1.73519 1.1127,3.42985 1.8783,5.0604 0.39008,0.83079 0.82062,1.65262 1.41256,2.35403 0.38583,0.45718 0.84629,0.8645 1.3936,1.10601 0.40299,0.17783 0.84566,0.2615 1.28612,0.25643 0.41279,-0.005 0.82509,-0.0871 1.20584,-0.24662 0.57592,-0.24128 1.06731,-0.6522 1.48632,-1.11517 0.62406,-0.68952 1.10246,-1.49991 1.49686,-2.34213 0.55271,-1.18029 0.94672,-2.42926 1.26852,-3.6922 0.46319,-1.81785 0.77975,-3.67222 0.96676,-5.53881 0.11505,-1.14834 0.18118,-2.30159 0.19815,-3.45556 V 136.1801 h 5.90047 v 59.70373 c 0.0107,2.63948 -0.0899,5.27941 -0.30141,7.91042 z"
         id="path81" /></g></g></svg>
