<?xml version="1.0" encoding="UTF-8" standalone="no"?>
<!-- Created with Inkscape (http://www.inkscape.org/) -->

<svg
   width="26.411676mm"
   height="93.726059mm"
   viewBox="0 0 26.411676 93.726057"
   version="1.1"
   id="svg1"
   xml:space="preserve"
   xmlns="http://www.w3.org/2000/svg"
   xmlns:svg="http://www.w3.org/2000/svg"><defs
     id="defs1"><linearGradient
       id="swatch41"><stop
         style="stop-color:#000000;stop-opacity:1;"
         offset="0"
         id="stop41" /></linearGradient></defs><g
     id="layer1"
     style="display:inline"
     transform="translate(-606.05628,-31.339689)"><g
       id="g15"
       style="stroke:none"><path
         id="path198"
         style="fill:#b2b2b2;fill-opacity:1;stroke:none;stroke-width:0.1;stroke-dasharray:none"
         d="m 619.26246,31.339689 c -0.81637,0.0047 -1.60734,0.16846 -2.33629,0.478007 -1.51403,0.642924 -2.70123,1.880787 -3.65198,3.223059 -1.59675,2.254294 -2.63396,4.860129 -3.40547,7.51272 -0.72558,2.494689 -1.22833,5.048856 -1.66553,7.609871 -0.41352,2.422325 -0.76974,4.854509 -1.04232,7.296713 -0.27718,2.483475 -0.46755,4.976074 -0.63562,7.469311 -0.17325,2.570135 -0.32276,5.142048 -0.40049,7.716842 -0.14919,4.941752 -0.0339,9.88787 0.14728,14.828552 0.0925,2.523213 0.20216,5.045935 0.36742,7.56543 0.24732,3.770696 0.61925,7.537776 1.28364,11.257706 0.45303,2.53655 1.04201,5.04914 1.76423,7.52254 0.35793,1.22581 0.7492,2.4442 1.26194,3.61374 0.62504,1.42567 1.42835,2.77211 2.36937,4.01215 0.67257,0.88629 1.42239,1.72519 2.31717,2.38642 0.49362,0.36477 1.03078,0.67397 1.6061,0.8878 0.63649,0.23657 1.31715,0.35405 2.02055,0.34468 0.7034,0.009 1.38406,-0.10811 2.02055,-0.34468 0.57532,-0.21383 1.11248,-0.52303 1.6061,-0.8878 0.89478,-0.66123 1.6446,-1.50013 2.31717,-2.38642 0.94102,-1.24004 1.74381,-2.58648 2.36885,-4.01215 0.51274,-1.16954 0.90453,-2.38793 1.26246,-3.61374 0.72222,-2.4734 1.31068,-4.98599 1.76371,-7.52254 0.66438,-3.71993 1.03681,-7.487012 1.28416,-11.257706 0.16528,-2.519494 0.27495,-5.042215 0.36742,-7.56543 0.18107,-4.940682 0.29534,-9.886786 0.14676,-14.828552 -0.0774,-2.574808 -0.22578,-5.146767 -0.39997,-7.716842 -0.16897,-2.49316 -0.36221,-4.985491 -0.63614,-7.469311 -0.26939,-2.442635 -0.61705,-4.876343 -1.04231,-7.296713 -0.36226,-2.573734 -0.91935,-5.120029 -1.66502,-7.609871 -0.79236,-2.645728 -1.81279,-5.256389 -3.40548,-7.51272 -0.94865,-1.343936 -2.13807,-2.580698 -3.65249,-3.223059 -0.72906,-0.30924 -1.51942,-0.472951 -2.33577,-0.478007 z m 0,15.040426 c 0.42068,-0.003 0.84155,0.09645 1.21646,0.287321 0.44126,0.22466 0.81145,0.569148 1.1312,0.947229 0.73214,0.86571 1.21997,1.91056 1.62419,2.969844 0.84548,2.215627 1.35978,4.544841 1.7384,6.885885 0.39701,2.454766 0.64789,4.930955 0.84387,7.409884 0.20353,2.574514 0.348,5.154103 0.42685,7.735445 0.0751,2.458588 0.0907,4.918668 0.0765,7.378361 -0.0143,2.478787 -0.0589,4.957287 -0.1571,7.434171 -0.0996,2.512391 -0.25453,5.024199 -0.53795,7.522538 -0.28576,2.518942 -0.70198,5.023277 -1.25315,7.497737 -0.39601,1.77789 -0.86824,3.55712 -1.70326,5.17591 -0.30501,0.59129 -0.66288,1.16579 -1.15186,1.61695 -0.17095,0.15772 -0.35726,0.29936 -0.55604,0.42013 -0.24783,0.15056 -0.51531,0.26838 -0.7922,0.3545 -0.2862,0.089 -0.58252,0.14433 -0.90589,0.16433 -0.32337,-0.02 -0.62021,-0.0754 -0.90641,-0.16433 -0.27689,-0.0861 -0.54437,-0.20394 -0.7922,-0.3545 -0.19878,-0.12077 -0.38457,-0.26241 -0.55552,-0.42013 -0.48898,-0.45116 -0.84737,-1.02566 -1.15238,-1.61695 -0.83502,-1.61879 -1.30673,-3.39802 -1.70274,-5.17591 -0.55117,-2.47446 -0.96739,-4.978795 -1.25315,-7.497737 -0.28342,-2.498339 -0.4389,-5.010147 -0.53847,-7.522538 -0.0982,-2.476884 -0.14224,-4.955384 -0.15658,-7.434171 -0.0142,-2.459693 7.6e-4,-4.919773 0.076,-7.378361 0.0788,-2.581342 0.22384,-5.160931 0.42737,-7.735445 0.19598,-2.478929 0.44686,-4.955118 0.84387,-7.409884 0.37862,-2.341044 0.89292,-4.670258 1.7384,-6.885885 0.40422,-1.059284 0.89205,-2.104134 1.62419,-2.969844 0.31975,-0.378081 0.68942,-0.722569 1.13068,-0.947229 0.37491,-0.190878 0.7963,-0.290292 1.21698,-0.287321 z" /></g></g></svg>
