<?xml version="1.0" encoding="UTF-8" standalone="no"?>
<!-- Created with Inkscape (http://www.inkscape.org/) -->

<svg
   width="25.747271mm"
   height="93.728638mm"
   viewBox="0 0 25.74727 93.728636"
   version="1.1"
   id="svg1"
   xml:space="preserve"
   xmlns="http://www.w3.org/2000/svg"
   xmlns:svg="http://www.w3.org/2000/svg"><defs
     id="defs1"><linearGradient
       id="swatch41"><stop
         style="stop-color:#000000;stop-opacity:1;"
         offset="0"
         id="stop41" /></linearGradient></defs><g
     id="layer1"
     style="display:inline"
     transform="translate(-475.12655,-136.18032)"><g
       id="g16"
       style="stroke:none"><path
         id="path148"
         style="fill:#b2b2b2;fill-opacity:1;stroke:none;stroke-width:0.1;stroke-dasharray:none"
         d="m 475.12655,136.18032 v 93.72864 h 5.92006 v -40.32673 h 8.9457 c 0.18666,-0.006 0.37294,-0.0247 0.55708,-0.0558 0.7718,-0.13054 1.49314,-0.47937 2.14405,-0.91416 0.44851,-0.29959 0.8684,-0.64088 1.26142,-1.01027 0.87042,-0.81809 1.60797,-1.77088 2.23863,-2.78536 1.39495,-2.24393 2.26515,-4.77665 2.90731,-7.33961 0.62491,-2.49409 1.04442,-5.03642 1.33377,-7.59127 0.28068,-2.47829 0.43968,-4.97155 0.43925,-7.46569 -2.1e-4,-1.22746 -0.0391,-2.45495 -0.11782,-3.67988 -0.15843,-2.46371 -0.47925,-4.91805 -0.9803,-7.33547 -0.55223,-2.66433 -1.32568,-5.28902 -2.42311,-7.77885 -0.8507,-1.93005 -1.91208,-3.79858 -3.39928,-5.29425 -0.81545,-0.8201 -1.77145,-1.52961 -2.86856,-1.89549 -0.39587,-0.13202 -0.80657,-0.21776 -1.22214,-0.2558 z m 5.95261,15.04973 h 8.36022 c 0.23765,0.0124 0.47415,0.0519 0.7028,0.11782 0.47492,0.137 0.91281,0.38672 1.29707,0.69763 0.9041,0.73152 1.49944,1.78436 1.89394,2.87838 0.43626,1.2098 0.6502,2.48823 0.79892,3.76566 0.14567,1.25119 0.23075,2.50937 0.2558,3.76876 0.0227,1.1408 -0.004,2.28202 -0.0729,3.42098 -0.0705,1.16894 -0.18582,2.34031 -0.46199,3.47834 -0.32442,1.33684 -0.88497,2.64161 -1.80609,3.66334 -0.32176,0.35691 -0.69115,0.68049 -1.12758,0.8816 -0.3103,0.14299 -0.65059,0.22111 -0.99219,0.2279 h -8.84804 z" /></g></g></svg>
