<?xml version="1.0" encoding="UTF-8" standalone="no"?>
<!-- Created with Inkscape (http://www.inkscape.org/) -->

<svg
   width="26.710146mm"
   height="98.358147mm"
   viewBox="0 0 26.710145 98.358145"
   version="1.1"
   id="svg1"
   xml:space="preserve"
   xmlns="http://www.w3.org/2000/svg"
   xmlns:svg="http://www.w3.org/2000/svg"><defs
     id="defs1"><linearGradient
       id="swatch41"><stop
         style="stop-color:#000000;stop-opacity:1;"
         offset="0"
         id="stop41" /></linearGradient></defs><g
     id="layer1"
     style="display:inline"
     transform="translate(-504.97447,-136.18)"><g
       id="g17"
       style="stroke:none"><path
         id="path155"
         style="fill:#b2b2b2;fill-opacity:1;stroke:none;stroke-width:0.1;stroke-dasharray:none"
         d="m 518.31462,136.18032 c -1.06183,0.0105 -2.12384,0.27428 -3.05201,0.79013 -1.27839,0.71049 -2.25506,1.8602 -3.08509,3.06441 -1.60235,2.32469 -2.75989,4.93229 -3.65559,7.60987 -0.80857,2.41711 -1.41026,4.90121 -1.84588,7.41247 -0.41468,2.39055 -0.67927,4.80476 -0.91312,7.21972 -0.24591,2.53959 -0.45839,5.08276 -0.5855,7.63106 -0.12581,2.52224 -0.16753,5.04789 -0.18862,7.57318 -0.0312,3.7303 -0.0169,7.46132 0.0972,11.19001 0.11431,3.73514 0.32847,7.46773 0.65267,11.19053 0.22248,2.55473 0.49685,5.10438 0.80512,7.65018 0.2987,2.4668 0.63011,4.93316 1.16013,7.36079 0.56655,2.59496 1.36385,5.15081 2.54507,7.52978 0.64648,1.30199 1.40671,2.54811 2.27841,3.7114 0.9303,1.24149 2.01537,2.41033 3.38533,3.13831 0.78007,0.41452 1.65422,0.67889 2.53731,0.6568 0.67467,-0.0169 1.34,-0.201 1.9482,-0.49351 0.74235,-0.35703 1.40526,-0.87743 1.92856,-1.5136 l 2.01694,6.63629 4.55424,-7.80728 -1.90221,-6.32726 c 0.72172,-1.7181 1.32728,-3.48485 1.81126,-5.28443 0.66904,-2.4877 1.10467,-5.03242 1.45521,-7.58455 0.34559,-2.51605 0.60939,-5.04295 0.82217,-7.5737 0.21449,-2.55117 0.37701,-5.10672 0.47129,-7.66516 0.0914,-2.48104 0.11854,-4.96438 0.12661,-7.44709 0.008,-2.50165 -0.003,-5.00352 -0.0636,-7.50446 -0.0604,-2.50467 -0.16981,-5.00805 -0.29869,-7.51013 -0.13052,-2.53387 -0.28096,-5.06683 -0.47749,-7.59644 -0.19223,-2.47423 -0.4288,-4.9488 -0.87953,-7.38921 -0.54467,-2.94906 -1.39997,-5.83524 -2.43861,-8.64857 -0.81926,-2.21909 -1.76222,-4.41271 -3.10472,-6.36033 -0.7789,-1.12998 -1.71306,-2.19008 -2.91042,-2.86081 -0.9685,-0.54253 -2.08459,-0.80934 -3.19463,-0.7984 z m 0.0946,15.08332 c 0.50909,0.0171 1.008,0.17457 1.45625,0.41651 1.15841,0.62525 1.9451,1.76965 2.53266,2.94762 1.20699,2.41982 1.75049,5.11316 2.13578,7.78971 0.35421,2.46068 0.58528,4.93817 0.72606,7.42022 0.14389,2.53681 0.19389,5.07832 0.20619,7.61917 0.012,2.4902 -0.0125,4.98012 -0.0636,7.46983 -0.0499,2.43228 -0.1257,4.86439 -0.24753,7.29413 -0.12761,2.54503 -0.30574,5.08841 -0.60359,7.61917 -0.29533,2.5093 -0.70799,5.00468 -1.1901,7.5215 l -3.22048,-11.27063 -4.55424,7.65948 3.24321,11.2019 c -0.94309,-0.009 -1.88004,-0.34036 -2.61844,-0.92707 -0.96973,-0.77053 -1.55681,-1.92039 -2.0097,-3.0732 -0.90348,-2.2998 -1.38635,-4.74282 -1.7477,-7.18716 -0.56492,-3.82143 -0.84388,-7.67948 -1.04335,-11.53728 -0.12761,-2.46793 -0.22279,-4.93742 -0.26199,-7.40833 -0.0388,-2.44579 -0.0222,-4.89238 0.0238,-7.33805 0.0477,-2.53714 0.12723,-5.0737 0.23874,-7.60884 0.12796,-2.4821 0.35559,-4.95895 0.68213,-7.4228 0.38341,-2.893 0.92732,-5.83668 2.3921,-8.36073 0.59632,-1.02755 1.37934,-2.00336 2.45567,-2.50631 0.45804,-0.21403 0.96282,-0.33574 1.46812,-0.31884 z" /></g></g></svg>
