<?xml version="1.0" encoding="UTF-8" standalone="no"?>
<!-- Created with Inkscape (http://www.inkscape.org/) -->

<svg
   width="25.90023mm"
   height="93.731743mm"
   viewBox="0 0 25.90023 93.731741"
   version="1.1"
   id="svg1"
   xml:space="preserve"
   xmlns="http://www.w3.org/2000/svg"
   xmlns:svg="http://www.w3.org/2000/svg"><defs
     id="defs1"><linearGradient
       id="swatch41"><stop
         style="stop-color:#000000;stop-opacity:1;"
         offset="0"
         id="stop41" /></linearGradient></defs><g
     id="layer1"
     style="display:inline"
     transform="translate(-538.74954,-136.17712)"><g
       id="g18"
       style="stroke:none"><path
         id="path150"
         style="fill:#b2b2b2;fill-opacity:1;stroke:none;stroke-width:0.1;stroke-dasharray:none"
         d="m 553.24375,136.17722 -14.49421,0.003 v 93.72864 h 5.98052 v -40.28177 h 6.76238 l 6.39444,40.28177 h 6.76289 l -6.90087,-43.77769 c 1.08821,-1.56498 2.01628,-3.24146 2.76469,-4.99452 1.0055,-2.35525 1.68445,-4.84095 2.15801,-7.35769 0.47851,-2.54306 0.7498,-5.12199 0.8971,-7.70548 0.1419,-2.48905 0.16911,-4.98598 0.046,-7.47603 -0.12089,-2.44494 -0.38719,-4.8837 -0.82837,-7.29154 -0.46807,-2.55459 -1.13407,-5.07641 -2.06396,-7.50135 -0.52737,-1.37526 -1.14194,-2.72326 -1.94355,-3.95893 -0.3851,-0.59362 -0.81429,-1.16161 -1.31155,-1.66502 -0.74739,-0.75663 -1.6544,-1.36553 -2.66236,-1.7048 -0.50297,-0.16929 -1.02847,-0.27099 -1.56115,-0.29869 z m -8.51369,15.03681 h 8.51059 c 0.20108,0.0111 0.39984,0.0598 0.58343,0.14262 0.3813,0.1719 0.68249,0.48241 0.94412,0.80874 0.67622,0.84347 1.15117,1.83334 1.50276,2.85564 0.39866,1.15915 0.64441,2.36655 0.80563,3.58169 0.32617,2.45846 0.30899,4.9567 0.0372,7.42177 -0.15469,1.40305 -0.39288,2.80251 -0.82269,4.14704 -0.30837,0.96466 -0.7239,1.9121 -1.37821,2.6851 -0.39287,0.46414 -0.87422,0.86289 -1.43299,1.10278 -0.37995,0.16312 -0.79166,0.25094 -1.20509,0.25683 h -7.54476 z" /></g></g></svg>
