<?xml version="1.0" encoding="UTF-8" standalone="no"?>
<!-- Created with Inkscape (http://www.inkscape.org/) -->

<svg
   width="25.866508mm"
   height="93.730553mm"
   viewBox="0 0 25.866508 93.730551"
   version="1.1"
   id="svg1"
   xml:space="preserve"
   xmlns="http://www.w3.org/2000/svg"
   xmlns:svg="http://www.w3.org/2000/svg"><defs
     id="defs1"><linearGradient
       id="swatch41"><stop
         style="stop-color:#000000;stop-opacity:1;"
         offset="0"
         id="stop41" /></linearGradient></defs><g
     id="layer1"
     style="display:inline"
     transform="translate(-572.1946,-136.17819)"><g
       id="g19"
       style="stroke:none"><path
         style="fill:#b2b2b2;fill-opacity:1;stroke:none;stroke-width:0.1;stroke-dasharray:none"
         d="m 572.35727,207.327 c 0.29391,2.5509 0.82178,5.07129 1.48927,7.55079 0.63501,2.35885 1.39929,4.68977 2.43561,6.90188 0.93518,1.99623 2.10043,3.90318 3.6206,5.49962 0.64391,0.67622 1.35509,1.2984 2.16861,1.75674 0.9815,0.55298 2.10252,0.85597 3.22895,0.87272 0.69239,-0.01 1.38322,-0.12514 2.04099,-0.34156 0.76989,-0.25331 1.49166,-0.64341 2.14659,-1.12086 0.81443,-0.59373 1.52537,-1.32036 2.16269,-2.10115 0.97543,-1.195 1.78429,-2.521 2.4568,-3.90923 1.16173,-2.39809 1.91647,-4.97492 2.4844,-7.57836 0.53819,-2.4671 0.913,-4.96868 1.15894,-7.48179 0.24008,-2.4532 0.35756,-4.92015 0.29276,-7.38421 -0.0679,-2.58365 -0.3363,-5.16063 -0.76421,-7.7095 -0.42252,-2.51674 -1.00108,-5.00881 -1.77309,-7.44119 -0.84182,-2.65231 -1.94021,-5.27678 -3.72879,-7.40854 -0.86325,-1.02889 -1.881,-1.93167 -3.02524,-2.6349 -0.66366,-0.40788 -1.36712,-0.74752 -2.0819,-1.05721 -1.08602,-0.47053 -2.21479,-0.88103 -3.17161,-1.57768 -0.94783,-0.69011 -1.69005,-1.6407 -2.21604,-2.68854 -1.07815,-2.1478 -1.24973,-4.63678 -1.14687,-7.03779 0.10947,-2.55541 0.51501,-5.12496 1.50871,-7.48179 0.44333,-1.05149 1.02191,-2.07967 1.90274,-2.80515 0.35671,-0.2938 0.75821,-0.53311 1.18633,-0.70711 0.6136,-0.20819 1.30279,-0.18466 1.90076,0.0649 0.5943,0.24803 1.08345,0.70425 1.46407,1.22371 0.50565,0.6901 0.83458,1.4921 1.12514,2.29677 0.41853,1.15909 0.76786,2.34254 1.0674,3.53792 0.13467,0.53743 0.25931,1.07737 0.37384,1.61945 l 5.99199,-4.3319 c -0.20381,-1.55189 -0.47519,-3.09491 -0.81312,-4.62321 -0.5656,-2.558 -1.32055,-5.08198 -2.39887,-7.46956 -0.6309,-1.39692 -1.37249,-2.74615 -2.25251,-4.00113 -0.48865,-0.69685 -1.02225,-1.36698 -1.64884,-1.94297 -0.6266,-0.57599 -1.35026,-1.05721 -2.15325,-1.33933 -0.61799,-0.21712 -1.27678,-0.3137 -1.93158,-0.29675 -0.81926,0.0212 -1.63323,0.22047 -2.37059,0.57816 -1.40831,0.68316 -2.48169,1.90407 -3.37498,3.1894 -1.61252,2.32023 -2.76121,4.93893 -3.60579,7.63529 -0.74663,2.38366 -1.26188,4.83662 -1.60711,7.3105 -0.34941,2.50383 -0.52535,5.0311 -0.54887,7.55908 -0.0229,2.46495 0.099,4.93116 0.36196,7.38215 0.28176,2.62576 0.72676,5.23953 1.45969,7.77662 0.50112,1.73468 1.14024,3.43922 2.04936,4.99927 0.4482,0.76911 0.96366,1.50419 1.59028,2.13646 0.53595,0.54078 1.14988,1.00247 1.80942,1.38286 0.79497,0.45851 1.65168,0.7977 2.48815,1.17521 1.24436,0.5616 2.45746,1.21629 3.51319,2.08189 1.01812,0.83476 1.87892,1.86006 2.529,3.00495 1.29085,2.27339 1.71938,4.93846 1.82166,7.55076 0.0972,2.48347 -0.0811,4.9818 -0.598,7.41283 -0.26865,1.26351 -0.63021,2.51273 -1.1732,3.68482 -0.30302,0.65409 -0.6638,1.28525 -1.12097,1.8426 -0.45718,0.55735 -1.01384,1.04033 -1.6583,1.36332 -0.58187,0.29162 -1.2351,0.44925 -1.88529,0.4199 -0.64348,-0.029 -1.27247,-0.24021 -1.82683,-0.56821 -1.1211,-0.66333 -1.91184,-1.77004 -2.51265,-2.92585 -0.64859,-1.24773 -1.11313,-2.58294 -1.51158,-3.93154 -0.61477,-2.08076 -1.07759,-4.20639 -1.38355,-6.35438 l -5.70894,4.71678 v -1e-5 c 0.0424,0.57571 0.0966,1.15056 0.16267,1.72405 z"
         id="path158" /></g></g></svg>
