<?xml version="1.0" encoding="UTF-8" standalone="no"?>
<!-- Created with Inkscape (http://www.inkscape.org/) -->

<svg
   width="25.746071mm"
   height="93.696571mm"
   viewBox="0 0 25.74607 93.69657"
   version="1.1"
   id="svg1"
   xml:space="preserve"
   xmlns="http://www.w3.org/2000/svg"
   xmlns:svg="http://www.w3.org/2000/svg"><defs
     id="defs1"><linearGradient
       id="swatch41"><stop
         style="stop-color:#000000;stop-opacity:1;"
         offset="0"
         id="stop41" /></linearGradient></defs><g
     id="layer1"
     style="display:inline"
     transform="translate(-701.06212,-31.352048)"><g
       id="g21"
       style="stroke:none"><path
         style="fill:#b2b2b2;fill-opacity:1;stroke:none;stroke-width:0.1;stroke-dasharray:none"
         d="m 706.89945,31.35205 h -5.83731 l -2e-5,63.634207 c 0.0197,1.26634 0.0652,2.532278 0.13652,3.796761 0.14226,2.522262 0.3875,5.041052 0.81949,7.530112 0.43477,2.50509 1.05845,4.9771 1.85733,7.39087 0.87043,2.62994 1.96533,5.21995 3.62692,7.43656 1.02852,1.37208 2.2996,2.61 3.86455,3.311 0.87969,0.39404 1.84241,0.61043 2.80622,0.59642 1.02547,-0.0149 2.0422,-0.2911 2.95062,-0.76709 1.40296,-0.73512 2.52253,-1.92107 3.44869,-3.20595 1.62794,-2.25846 2.72566,-4.8589 3.56808,-7.51242 0.75601,-2.38133 1.31666,-4.82184 1.75259,-7.28197 0.43933,-2.47933 0.75283,-4.98322 0.86655,-7.498596 0.0591,-1.307651 0.0642,-2.617742 0.0153,-3.925814 V 31.352048 h -5.79025 v 63.569149 c -0.11771,2.507182 -0.51439,5.001166 -1.18037,7.421143 -0.57515,2.08994 -1.38066,4.17489 -2.82138,5.79444 -0.38494,0.43272 -0.81589,0.83095 -1.31504,1.12467 -0.49916,0.29371 -1.07098,0.4796 -1.65006,0.47024 -0.55258,-0.009 -1.09319,-0.19512 -1.56792,-0.47806 -0.47473,-0.28294 -0.88751,-0.66003 -1.26038,-1.06794 -1.41284,-1.54562 -2.26277,-3.52304 -2.8878,-5.52164 -0.79588,-2.54493 -1.26831,-5.190815 -1.40233,-7.830913 z"
         id="path101" /></g></g></svg>
